<svg width="119" height="48" viewBox="0 0 119 48" fill="none" xmlns="http://www.w3.org/2000/svg">
<path d="M44.6481 33.1218H52.2981V37.5172H38.9106V13.7956H44.6481V33.1218ZM63.6905 18.56C65.5471 18.56 67.2023 18.9515 68.6563 19.7344C70.1326 20.4949 71.2845 21.6021 72.1122 23.0561C72.9622 24.51 73.3872 26.21 73.3872 28.1561C73.3872 30.1021 72.9622 31.8021 72.1122 33.256C71.2845 34.71 70.1326 35.8284 68.6563 36.6113C67.2023 37.3718 65.5471 37.7521 63.6905 37.7521C61.8339 37.7521 60.1675 37.3718 58.6912 36.6113C57.2148 35.8284 56.0517 34.71 55.2017 33.256C54.3741 31.8021 53.9602 30.1021 53.9602 28.1561C53.9602 26.21 54.3741 24.51 55.2017 23.0561C56.0517 21.6021 57.2148 20.4949 58.6912 19.7344C60.1675 18.9515 61.8339 18.56 63.6905 18.56ZM63.6905 23.5258C62.5944 23.5258 61.6661 23.9284 60.9056 24.7337C60.1675 25.5166 59.7984 26.6574 59.7984 28.1561C59.7984 29.6547 60.1675 30.7955 60.9056 31.5784C61.6661 32.3613 62.5944 32.7528 63.6905 32.7528C64.7865 32.7528 65.7036 32.3613 66.4418 31.5784C67.1799 30.7955 67.549 29.6547 67.549 28.1561C67.549 26.6574 67.1799 25.5166 66.4418 24.7337C65.7036 23.9284 64.7865 23.5258 63.6905 23.5258ZM83.4755 18.56C84.907 18.56 86.1373 18.8844 87.1662 19.5331C88.1952 20.1817 88.9557 21.0653 89.4478 22.1837V18.7949H95.1517V37.4166C95.1517 39.1613 94.8162 40.7271 94.1452 42.1139C93.4741 43.5231 92.4452 44.6415 91.0583 45.4692C89.6715 46.2968 87.9491 46.7106 85.8912 46.7106C83.0728 46.7106 80.8136 46.0396 79.1136 44.6975C77.436 43.3777 76.4294 41.5771 76.0939 39.2955H81.7643C81.9432 40.056 82.3459 40.6488 82.9722 41.0738C83.6209 41.4988 84.4597 41.7113 85.4886 41.7113C86.6741 41.7113 87.6248 41.3646 88.3406 40.6711C89.0787 40.0001 89.4478 38.9152 89.4478 37.4166V34.1284C88.9557 35.2468 88.1952 36.1304 87.1662 36.7791C86.1373 37.4277 84.907 37.7521 83.4755 37.7521C81.932 37.7521 80.5452 37.3718 79.315 36.6113C78.1071 35.8284 77.1452 34.71 76.4294 33.256C75.736 31.8021 75.3893 30.1021 75.3893 28.1561C75.3893 26.1876 75.736 24.4876 76.4294 23.0561C77.1452 21.6021 78.1071 20.4949 79.315 19.7344C80.5452 18.9515 81.932 18.56 83.4755 18.56ZM85.3209 23.5929C84.0906 23.5929 83.0952 23.9955 82.3347 24.8008C81.5965 25.6061 81.2274 26.7245 81.2274 28.1561C81.2274 29.5876 81.5965 30.706 82.3347 31.5113C83.0952 32.3166 84.0906 32.7192 85.3209 32.7192C86.5287 32.7192 87.513 32.3054 88.2735 31.4778C89.0564 30.6501 89.4478 29.5429 89.4478 28.1561C89.4478 26.7468 89.0564 25.6396 88.2735 24.8344C87.513 24.0067 86.5287 23.5929 85.3209 23.5929ZM107.859 18.56C109.716 18.56 111.371 18.9515 112.825 19.7344C114.301 20.4949 115.453 21.6021 116.281 23.0561C117.131 24.51 117.556 26.21 117.556 28.1561C117.556 30.1021 117.131 31.8021 116.281 33.256C115.453 34.71 114.301 35.8284 112.825 36.6113C111.371 37.3718 109.716 37.7521 107.859 37.7521C106.003 37.7521 104.336 37.3718 102.86 36.6113C101.384 35.8284 100.22 34.71 99.3704 33.256C98.5428 31.8021 98.129 30.1021 98.129 28.1561C98.129 26.21 98.5428 24.51 99.3704 23.0561C100.22 21.6021 101.384 20.4949 102.86 19.7344C104.336 18.9515 106.003 18.56 107.859 18.56ZM107.859 23.5258C106.763 23.5258 105.835 23.9284 105.074 24.7337C104.336 25.5166 103.967 26.6574 103.967 28.1561C103.967 29.6547 104.336 30.7955 105.074 31.5784C105.835 32.3613 106.763 32.7528 107.859 32.7528C108.955 32.7528 109.872 32.3613 110.611 31.5784C111.349 30.7955 111.718 29.6547 111.718 28.1561C111.718 26.6574 111.349 25.5166 110.611 24.7337C109.872 23.9284 108.955 23.5258 107.859 23.5258Z" fill="#171725"/>
<circle cx="12.3103" cy="25.1379" r="12.3103" fill="#0062FF"/>
</svg>
